<?xml version="1.0" encoding="UTF-8" standalone="no"?>
<svg xmlns="http://www.w3.org/2000/svg" xmlns:xlink="http://www.w3.org/1999/xlink" class="card" face="1J" height="3.5in" preserveAspectRatio="none" viewBox="-120 -168 240 336" width="2.5in"><symbol id="J11" preserveAspectRatio="none" viewBox="0 0 1300 2000"><path fill="black" d="M479.64645,513.05546 467.5,530.5c24.18291,102.76967 81.17212,103.40057 136.26256,99.14645l13.35876,-20.35356C542.91773,627.98426 492.76179,592.82717 479.64645,513.05546Z"></path></symbol><symbol id="J12" preserveAspectRatio="none" viewBox="0 0 1300 2000"><path fill="red" d="M605,10l-15,5c6.6621,21.865113 22.7391,70.819123 25,85l14.7168,4.52734C609.44035,101.42714 590.66447,100 575,100 503.05436,100 441.92903,136.36112 384.7832,184.91406 344.9297,169.52797 306.09375,148.45392 265,140c0,0 -24.37216,5.33939 -30,15 -9.83366,16.88022 34.25738,101.05705 35,100 0,0 -5,-30 0,-35 5,-5 60,15 60,15l-55,55 4.84961,-4.62891C198.25358,373.66538 191.08754,558.3687 190,560c0,0 -34.0841,36.70236 -40,60 -13.59222,53.52804 -10.9702,116.2604 15,165 32.31459,60.64643 96.35035,104.09741 160,130 44.88689,18.26698 94.08715,21.17643 143.4707,21.01562C428.42081,956.07119 261.64061,1104.9724 240,1280c-4.49925,36.3896 -12.89664,75.6762 0,110 1.13119,3.0106 2.48734,5.9871 4.0332,8.8945L242.82812,1400c-20,20 -42.82775,89.9995 -34.36328,121.0645 14.34657,52.6525 40.34291,87.8886 96.53516,98.9355 1.41644,0.2785 2.82455,0.5665 4.23828,0.8477 -0.45523,0.2092 -0.9025,0.4055 -1.35937,0.6171 0,10 -7.16362,15.6289 -12.11524,18.2735C255.07514,1661.4689 215,1750 270,1800c13.90526,39.0733 92.33531,51.6217 90,40 129.59451,22.2297 165.00023,-105.001 167.87891,-129.5469 -0.0218,-0.1262 -0.0465,-0.2489 -0.0684,-0.375C513.64391,1701.0787 498.16567,1691.1789 480,1680c-3.1999,-2.4221 -6.13846,-5.5128 -8.85742,-9.1641l0.27148,1.9922c-0.71562,-1.4911 -1.40834,-3.0205 -2.08984,-4.5683 -33.98446,-50.823 -30.30598,-201.2632 -40.22852,-303.2891C459.99999,1305 455,1105 545,935c110,5 180,-30 270,-60 0,0 4.82974,34.04847 0,50 -1.74139,5.75141 -8.31989,9.2304 -10,15 -21.90599,75.2264 25.22597,159.3046 5,235 -24.12812,90.2992 -151.33521,148.4514 -142.5,241.5 6.35868,66.9669 77.5,128.5 132.5,148.5 -7.97868,32.3087 -22.99448,76.5556 -10,115 15.5539,46.0164 31.88861,90.9383 105,100l-20,20c-4.54549,4.862 -45,30 -45,90 0,53.2125 34.75109,80.5319 70,90 28.42892,22.7231 92.14927,10.5677 91.56445,-2.9297C1013.1932,1990.6735 1111.4883,1915.406 1135,1845c5.3837,-16.1216 8.2154,-33.0972 10,-50 13.4758,-127.6347 34.1459,-260.009 5,-385 -22.5127,-96.5451 -135,-265 -135,-265l-0.5918,2.7676c-13.5864,-28.4687 -35.19503,-58.9464 -59.23828,-88.0352 0.93127,-1.5116 31.53204,-50.8944 54.83008,-49.7324 18.8328,0.9393 25,30 40,40 9.7072,6.4715 28.8855,9.936 35,0 40,-65 60,-250 17,-308 -23.022,-31.05282 -83.9813,-42.18839 -94.875,-38.08203 6.4184,-20.2624 11.9338,-40.5388 17.875,-58.91797 6.6841,-20.67716 5,-65 5,-65l-0.793,-1.66406L950,650 730,390 883.19922,265.98242C868.75026,255.68875 854.35508,243.53247 840,230c40,-80 162.0491,-133.332868 180,-120 17.3341,12.87475 5.3121,165.29846 6.9023,177.20508l0.3965,0.30469c0.08,-0.0416 0.1589,-0.0793 0.2383,-0.1211 -0.034,0.1007 -0.064,0.15526 -0.096,0.23242l164.7813,127.42969 -21.8223,22.14844L1195,415 1070.5078,319.80078C1075.6434,311.99275 1083.1667,130.51988 1080,55 1079.5529,44.337498 1055,35 1055,35 1029.5423,35.395389 887.99367,116.93506 811.44531,183.75195 785.92282,164.62676 759.03644,145.98595 741.62109,137.64062 687.42498,99.502686 621.24659,23.489173 605,10Zm270,1790c-7.67741,-0.5794 -15.08206,-1.1593 -22.32422,-1.7402 7.23838,0.5807 14.65144,1.1611 22.32422,1.7402zM615,450a20,17.5 0 0 1 20,17.5 20,17.5 0 0 1 -20,17.5 20,17.5 0 0 1 -20,-17.5 20,17.5 0 0 1 20,-17.5zm536.918,5.95898 -0.1504,0.15235L1160,460Zm-685.15042,74.92579 137.17187,98.4082c5.21126,6.0997 -60.84103,49.33169 -113.05468,10.5293 -34.52253,-25.6553 -40.88496,-84.82138 -24.11719,-108.9375zM572.17969,1737.1777c0.25981,0.1469 0.52164,0.2954 0.78125,0.4414 -0.25977,-0.1462 -0.52128,-0.2944 -0.78125,-0.4414zm189.68164,52.418c1.51362,0.176 2.97385,0.3546 4.51367,0.5293 -1.54142,-0.1746 -2.99854,-0.3534 -4.51367,-0.5293zm14.14062,1.582c2.62596,0.2837 5.24448,0.569 7.94532,0.8496 -2.70468,-0.2807 -5.31583,-0.5659 -7.94532,-0.8496zm17.22657,1.7871c3.00083,0.299 6.03658,0.5983 9.1289,0.8946 -3.09457,-0.2962 -6.12605,-0.5957 -9.1289,-0.8946zm18.5332,1.7793c3.66812,0.3384 7.4327,0.6741 11.22851,1.0098 -3.80276,-0.3361 -7.55402,-0.6711 -11.22851,-1.0098zm19.44336,1.7305c4.51498,0.3879 9.17739,0.7745 13.87304,1.1602 -4.69583,-0.3855 -9.35806,-0.7726 -13.87304,-1.1602zM280.74609,1817.9922c-0.16231,-0.011 -0.45451,0.05 -0.75,0.164 -0.73041,0.2803 -0.9998,1.0528 -0.36718,1.0528 0.42413,0 1.43991,-0.9723 1.23242,-1.1797 -0.0204,-0.02 -0.0611,-0.033 -0.11524,-0.037zM286.97852,1828.0938c-0.11784,0 -0.12923,0.1757 -0.0176,0.4667 0.1428,0.3721 0.33548,0.6758 0.42968,0.6758 0.35308,0 0.15449,-0.8318 -0.25976,-1.0879 -0.0618,-0.038 -0.11307,-0.056 -0.15234,-0.055zM291.48633,1830.1074c-0.23977,0 -0.43555,0.087 -0.43555,0.1934 0,0.1057 0.19578,0.3127 0.43555,0.4609 0.23978,0.1482 0.43555,0.063 0.43555,-0.1914 0,-0.2539 -0.19577,-0.4629 -0.43555,-0.4629zM300.03516,1837.6699c-0.15634,-0.026 -0.26563,0.069 -0.26563,0.2598 0,0.2539 0.19577,0.4609 0.43555,0.4609 0.23978,0 0.43554,-0.086 0.43554,-0.1914 0,-0.1057 -0.19576,-0.3127 -0.43554,-0.4609 -0.06,-0.037 -0.11781,-0.06 -0.16992,-0.068zM1125.2911,417.39021c-0.6615,3.83363 -2.7843,9.10613 -5.2854,13.12766 -7.6623,12.32014 -22.9277,20.67176 -40.5107,22.16304 -1.6713,0.14177 -3.1783,0.40082 -3.3488,0.57573 -0.1704,0.1749 -0.4252,1.49507 -0.5662,2.93372 -0.6387,6.51581 -0.8265,7.61604 -1.8601,10.89892 -3.93,12.48219 -13.3469,22.40151 -26.7544,28.18178 -6.3426,2.73445 -11.8802,4.02165 -20.4198,4.74652 -16.1005,1.36668 -33.92621,-3.24762 -48.37133,-12.52125 -3.92405,-2.51922 -5.03133,-3.38245 -22.03347,-17.17726 -5.73571,-4.65371 -14.68412,-11.89443 -19.8853,-16.09051 -5.20123,-4.19609 -13.4344,-10.86622 -18.29602,-14.82253 -4.86157,-3.95631 -12.68665,-10.30362 -17.38901,-14.10517 -4.70236,-3.80154 -10.26634,-8.30096 -12.36439,-9.99867 -2.09804,-1.69774 -3.81396,-3.19765 -3.81314,-3.3331 0,-0.1355 2.09282,-2.01194 4.64887,-4.16993 2.55606,-2.15799 7.12315,-6.0816 10.14912,-8.71914 10.33676,-9.00987 11.03097,-9.59122 11.61986,-9.73003 0.51879,-0.12228 2.90391,1.40082 4.40517,2.81314 0.28904,0.27187 2.61535,2.13558 5.16962,4.14159 4.79139,3.76288 9.77952,7.74927 11.3072,9.03634 1.62101,1.36577 36.06343,29.04445 37.2185,29.9096 0.63013,0.47197 4.18649,3.31109 7.90302,6.30921 24.1369,19.47101 24.3717,19.6402 29.6451,21.3645 3.5144,1.14914 9.7999,1.59617 13.2966,0.94568 5.6701,-1.0548 10.3498,-4.42169 12.6363,-9.0914 1.0707,-2.18667 1.2252,-2.99454 1.1994,-6.27455 -0.026,-3.34227 -0.1978,-4.12516 -1.5284,-6.97636 -0.8243,-1.76636 -2.3106,-4.12275 -3.3029,-5.23636 -1.9968,-2.24099 -1.4015,-1.75089 -21.8651,-18.00201 -22.71825,-18.04168 -25.84986,-20.52668 -34.00461,-26.98368 -4.19608,-3.32247 -8.0274,-6.36562 -8.51406,-6.76251 -0.48661,-0.3969 -3.23314,-2.59587 -6.10339,-4.88664 -2.87021,-2.29074 -8.11224,-6.47701 -11.64894,-9.30289 -3.5367,-2.82582 -6.43037,-5.40381 -6.43037,-5.72882 0,-0.32505 1.01417,-1.4356 2.25377,-2.46795 1.23955,-1.03234 3.25041,-2.77146 4.46856,-3.86462 1.2181,-1.09321 2.91537,-2.56456 3.77163,-3.26968 0.85627,-0.70516 3.95195,-3.29291 6.87931,-5.75062 2.92737,-2.45771 5.46913,-4.46856 5.64843,-4.46856 0.32222,0 1.86817,1.00602 3.13571,2.0405 1.57237,1.28328 10.80868,8.55247 15.68708,12.34608 2.92928,2.27787 7.31718,5.71234 9.75096,7.63212 2.43373,1.91982 5.60209,4.3716 7.04074,5.44837 1.43868,1.07681 2.71378,2.06478 2.83368,2.19556 0.2958,0.32261 4.735,3.86585 6.5322,5.21392 0.7992,0.59944 1.6673,1.28607 1.9291,1.52585 0.2617,0.23977 1.6484,1.31877 3.0816,2.39776 1.4331,1.07899 2.9045,2.1977 3.2697,2.486 0.3651,0.2883 2.8395,2.2501 5.4985,4.35957 2.6591,2.10946 5.4056,4.27002 6.1034,4.80128 0.6979,0.53125 1.7592,1.35364 2.3587,1.82757 0.5994,0.47393 3.7678,2.98199 7.0409,5.57345 12.1536,9.62278 13.2822,10.47076 15.6288,11.74232 4.4365,2.40391 8.379,3.36572 13.7327,3.35011 5.2943,-0.0153 8.3257,-0.84694 11.8464,-3.24954 6.3646,-4.34339 8.0307,-12.33295 4.1341,-19.82552 -2.1652,-4.16348 -2.8461,-4.73402 -40.8301,-34.21559 -6.9535,-5.39702 -16.3701,-12.64061 -20.9259,-16.09688 -9.4028,-7.13356 -8.408,-6.37303 -11.5528,-8.83244 -1.3188,-1.03134 -3.5749,-2.76114 -5.0135,-3.84392 -3.785,-2.84881 -15.83887,-12.2799 -24.3964,-19.08798 -7.90895,-6.29212 -11.24533,-8.50089 -15.05773,-9.96859 -6.79042,-2.61417 -14.05045,-2.47854 -19.73127,0.3686 -1.9622,0.98344 -26.6619,21.10053 -40.43077,32.92957 -0.59944,0.51499 -2.26697,1.91681 -3.70563,3.11522 -4.1827,3.48412 -15.15695,12.71917 -16.34838,13.75748 -0.59944,0.52241 -3.54215,3.00802 -6.53935,5.52353 -2.99721,2.51556 -5.54755,4.67913 -5.66744,4.80791 -0.11989,0.12882 -2.6681,2.28773 -5.66269,4.79757 -2.99458,2.50985 -6.03538,5.08452 -6.75733,5.72146 -3.50143,3.08914 -11.37664,9.51903 -11.66097,9.52081 -0.17669,0 -2.95766,-2.10689 -6.17986,-4.68448 -3.2222,-2.5776 -10.28723,-8.19625 -15.70007,-12.48589 -5.41288,-4.28964 -9.84155,-7.92552 -9.84155,-8.07977 0,-0.29248 2.12799,-2.08435 26.15741,-22.02549 8.0325,-6.66592 15.095,-12.53747 15.69444,-13.04797 1.69993,-1.44764 13.91853,-11.56188 16.34838,-13.5328 1.19888,-0.97245 2.27788,-1.88172 2.39776,-2.02062 0.11989,-0.13894 1.89921,-1.61299 3.95404,-3.27569 3.60633,-2.91808 13.65548,-11.1788 23.00675,-18.91224 10.07876,-8.33506 14.4885,-10.9913 22.33494,-13.45354 7.77254,-2.43905 12.47486,-3.12851 21.36725,-3.13279 8.0819,-0.004 14.60577,0.86834 22.4138,2.99682 4.40975,1.2021 11.94408,4.14634 14.82253,5.79234 0.71933,0.41132 2.77923,1.57519 4.57755,2.58635 1.79832,1.01116 3.95631,2.36128 4.79552,3.00026 0.83922,0.63894 2.70294,2.02598 4.14159,3.0823 1.43868,1.05632 3.98898,3.02175 5.66748,4.36768 5.3181,4.26452 34.4878,26.54972 39.9036,30.48576 2.6572,1.93115 10.5957,7.97229 10.8853,8.28365 0.1199,0.12892 2.6703,2.07673 5.6675,4.32849 6.3979,4.80673 8.8549,6.69477 9.155,7.03508 0.1199,0.13593 1.3951,1.1157 2.8338,2.1773 1.4386,1.0616 2.7138,2.03012 2.8337,2.15228 0.2404,0.24496 5.3099,4.07231 7.219,5.45028 0.6645,0.47956 1.421,1.07799 1.6811,1.32989 0.2601,0.2519 1.8462,1.51142 3.5247,2.79902 1.6784,1.28755 3.5562,2.74901 4.1728,3.24766 0.6167,0.49864 1.778,1.39706 2.5807,1.9965 16.6519,12.43506 25.01,22.96006 28.9221,36.42045 0.6243,2.14809 1.336,5.18073 1.5815,6.73928 0.5801,3.6813 0.4991,10.74184 -0.1674,14.60455zM995.28401,541.53697c-0.22679,0.14016 -4.6232,0.38975 -9.76984,0.55467 -5.14664,0.16492 -9.53241,0.46211 -9.74616,0.66043 -0.22727,0.21087 -0.17146,4.55435 0.13432,10.46043 0.28764,5.55497 0.43874,10.18409 0.33586,10.28697 -0.10293,0.10293 -1.38312,-0.75211 -2.84493,-1.90012 -1.92806,-1.51412 -2.72015,-2.44632 -2.88477,-3.3951 -0.21052,-1.21331 -1.1092,-16.11039 -1.1092,-18.38709 0,-0.55715 -0.25072,-1.01298 -0.5572,-1.01298 -0.30643,0 -2.95308,2.17259 -5.88145,4.828l-5.32429,4.82805 -1.20285,-0.8618c-0.66152,-0.47398 -1.66863,-1.36102 -2.23799,-1.97118 -0.88434,-0.94773 -0.94537,-1.19217 -0.41882,-1.67748 0.339,-0.3124 1.88434,-1.74513 3.43412,-3.18379 1.54978,-1.43866 4.86785,-4.47945 7.37351,-6.75733 2.50571,-2.27787 5.84025,-5.33445 7.41009,-6.79238 8.2466,-7.65854 13.02547,-11.95376 13.29978,-11.95376 0.50697,0 4.15911,3.12524 4.15911,3.55906 0,0.42083 -3.36123,3.65332 -12.86072,12.36823 -5.03369,4.61796 -6.42134,6.0489 -6.51302,6.71617 -0.0144,0.10542 4.87818,0.15037 10.87258,0.0998l10.89892,-0.0918 1.92266,1.68405c1.05741,0.92628 1.73707,1.79876 1.51029,1.93892zm-29.80585,-22.13523 -1.30543,1.25063 -3.3811,-3.49048c-4.42292,-4.56595 -6.49218,-5.56107 -11.00329,-5.29139 -5.08256,0.30382 -9.35062,3.04595 -11.52147,7.40224 -2.74504,5.50854 0.0358,10.85633 7.34287,14.12095 1.56212,0.69788 2.84544,1.50078 2.85189,1.78415 0.007,0.28342 -0.60794,0.95649 -1.36532,1.49581l-1.37702,0.98052 -3.09154,-1.59761c-8.70968,-4.50095 -12.80911,-10.48877 -11.54994,-16.87044 0.6263,-3.17416 2.05663,-5.55832 4.83093,-8.05264 8.08857,-7.27233 17.66013,-6.30586 27.03294,2.72956 2.11304,2.03697 3.84187,3.83507 3.84187,3.99581 0,0.16074 -0.58741,0.85504 -1.30539,1.54289zm-20.55728,-30.29978c-1.95932,1.4193 -1.92013,1.42663 -4.40373,-0.81955 -0.65938,-0.59635 -1.19888,-1.28206 -1.19888,-1.5238 0,-0.67225 2.26331,-2.88499 2.9509,-2.88499 0.70852,0 4.46037,2.97554 4.46037,3.53744 0,0.20939 -0.81389,0.97027 -1.80866,1.6909zm-17.21837,15.61318c-5.90909,5.32151 -10.97448,9.67546 -11.25641,9.67546 -0.59412,0 -4.15715,-2.95793 -4.15715,-3.45117 0,-0.44651 20.35783,-18.89668 21.39397,-19.38922 0.63283,-0.30081 1.26327,-0.0235 2.79047,1.22805 1.08514,0.88917 1.97297,1.76178 1.97297,1.93909 0,0.1773 -4.83472,4.67633 -10.74385,9.99779zm-0.0566,-18.87971c-0.17822,0.23977 -0.86411,0.91367 -1.52415,1.49755l-1.2001,1.06156 -1.41184,-1.36154c-2.40104,-2.31541 -5.22403,-3.25424 -9.28078,-3.08653 -3.98548,0.16483 -2.60999,-0.73101 -12.77349,8.31932 -2.89467,2.57759 -5.61399,4.68122 -6.04293,4.67472 -1.16693,-0.0174 -4.14826,-2.9441 -3.73484,-3.66614 0.18654,-0.3257 2.49711,-2.50736 5.13465,-4.8481 6.16609,-5.47221 11.16795,-9.95755 13.69253,-12.27855 1.10106,-1.01224 2.277,-1.84601 2.61317,-1.85281 0.62774,-0.0126 4.36458,2.61299 4.38878,3.0837 0.007,0.14425 -0.57507,0.87814 -1.2944,1.63087 -0.71933,0.75272 -1.30691,1.51747 -1.30574,1.69949 0,0.18201 1.42345,0.33446 3.16069,0.33878 3.42562,0.008 5.19687,0.55532 8.06307,2.4894 1.90208,1.28354 2.07489,1.5456 1.51538,2.29828zm-19.45056,-23.5139c-0.84602,1.91006 -3.91951,4.37823 -6.152,4.94039 -2.46687,0.62115 -4.16025,0.59613 -7.53739,-0.11147 -1.50832,-0.31607 -2.82143,-0.44673 -2.91808,-0.29039 -0.0966,0.15633 0.33804,1.35085 0.96591,2.65449 1.3383,2.77884 1.76654,6.3784 0.98369,8.26845 -0.77068,1.86057 -4.13862,4.69059 -6.26806,5.26692 -2.92457,0.79157 -6.75737,0.26088 -9.78993,-1.35547 -3.01063,-1.60467 -15.32562,-11.58891 -15.32562,-12.42512 0,-0.61147 28.95668,-26.07789 29.90136,-26.29722 0.70542,-0.16379 8.54793,6.18562 12.10761,9.80249 3.66574,3.72473 5.10357,7.12868 4.03251,9.54693zm-7.04149,-5.67141c-0.80277,-1.92121 -3.65593,-5.1132 -5.69939,-6.37613l-1.47018,-0.90862 -1.14334,0.89934c-1.25586,0.98788 -6.86553,5.91781 -8.09554,7.11464 -1.00615,0.97898 -0.72386,1.57982 1.48962,3.17058 4.60985,3.31301 9.02474,4.12816 12.32123,2.27504 0.99136,-0.55728 2.07276,-1.63588 2.50605,-2.4996 0.92314,-1.83991 0.91948,-1.69365 0.0915,-3.67525zm-13.9504,10.62248c-1.14517,-2.21448 -4.98717,-6.06991 -6.03974,-6.0608 -0.87985,0.007 -10.05521,7.65253 -10.90581,9.08682 -0.30338,0.51155 0.15969,1.162 1.96181,2.7556 5.96502,5.27481 11.26839,6.1704 14.6192,2.46865 0.50898,-0.56226 1.04464,-1.31659 1.19033,-1.67626 0.45205,-1.11587 -0.0436,-5.06137 -0.82579,-6.57401zm-16.73812,-23.28903c-0.17513,0.71933 -0.66645,1.97628 -1.0919,2.79327 -1.05379,2.02366 -4.56172,5.70937 -5.4264,5.7014 -0.63279,-0.006 -4.06874,-2.69016 -13.41251,-10.4784 -2.10567,-1.75516 -3.35085,-2.5098 -3.83481,-2.32409 -1.24065,0.47611 -2.85604,4.27042 -2.85604,6.70846 0,4.20154 3.04193,7.8416 9.0461,10.82472 1.73838,0.86372 3.16069,1.74117 3.16069,1.94986 0,0.55219 -1.85652,2.0136 -2.57956,2.03056 -1.82923,0.0432 -10.35493,-5.76178 -12.39133,-8.43668 -3.19591,-4.19796 -3.97217,-8.92055 -2.13906,-13.01296 1.2699,-2.83494 4.58173,-6.00958 8.05116,-7.71757 5.1619,-2.54119 12.28718,-2.28921 16.85797,0.59621 2.9247,1.84628 5.67904,5.03491 6.37578,7.38101 0.35618,1.19937 0.62747,2.29218 0.60293,2.4285 -0.0244,0.13633 -0.1879,0.83639 -0.36302,1.55571zm-6.88603,-6.87342c-2.85503,-3.00675 -6.99614,-3.77059 -10.59715,-1.9547 -1.06983,0.5395 -2.00322,1.29623 -2.07415,1.68157 -0.0824,0.44773 1.77561,2.25773 5.14652,5.0135 2.90155,2.37209 5.51855,4.36847 5.81562,4.43652 0.79771,0.18262 2.45657,-1.7665 3.10253,-3.64543 0.70084,-2.03866 0.25948,-3.79077 -1.39337,-5.53146zm-15.15407,-14.026 -1.52184,1.16074 -1.54608,-1.35748c-2.7535,-2.4176 -6.85084,-3.50946 -10.8943,-2.90313 -1.78929,0.26833 -2.78685,0.96556 -8.85171,6.18684 -3.75934,3.23646 -7.15414,6.0608 -7.54397,6.27638 -0.52267,0.289 -1.23838,-0.0205 -2.72473,-1.17861 -1.10877,-0.8638 -2.01591,-1.73088 -2.01591,-1.92679 0,-0.19597 2.12691,-2.18057 4.72647,-4.41023 2.59953,-2.2297 7.24212,-6.21199 10.31683,-8.84953 7.6694,-6.57898 6.73737,-6.13566 9.10274,-4.32957 2.28995,1.74849 2.46695,2.40495 0.92148,3.41755 -1.99768,1.30896 -1.38102,1.87252 2.28877,2.09163 3.4966,0.20882 6.26963,1.24235 8.28318,3.08719 1.28895,1.18092 1.25207,1.36742 -0.54093,2.73501zM831.8397,396.6371c-0.84755,0.74418 -1.66213,1.35303 -1.81014,1.35303 -0.57411,0 -4.03386,-2.86153 -4.04664,-3.34693 -0.007,-0.28228 0.70634,-1.10654 1.5861,-1.83171l1.59957,-1.31847 2.10606,1.76332c1.15834,0.96979 2.10607,1.82278 2.10607,1.8955 0,0.0727 -0.69348,0.74108 -1.54102,1.48526zm-17.70832,15.03994 -10.96623,9.37634 -1.94816,-1.39563c-1.0715,-0.76759 -2.05288,-1.66636 -2.18088,-1.99725 -0.13806,-0.35691 0.54094,-1.24352 1.66946,-2.17978 1.04621,-0.86799 5.54009,-4.6854 9.98642,-8.48311 4.44632,-3.79775 8.58917,-7.26871 9.20636,-7.7133l1.12215,-0.8083 2.01761,1.60985c1.10973,0.88548 2.02707,1.74601 2.03853,1.91237 0.0113,0.16636 -4.91385,4.52183 -10.94526,9.67881zm6.3298,-24.61748c-0.63174,0.49695 -1.27661,0.90357 -1.43295,0.90357 -0.15637,0 -2.53312,-1.81821 -5.2817,-4.04041 -7.14921,-5.78013 -9.18905,-7.29447 -9.82586,-7.29447 -1.01878,0 -9.83636,7.86614 -9.687,8.64175 0.0765,0.39699 2.3856,2.53841 5.13139,4.75865 6.54214,5.28998 6.39583,5.13531 5.67685,6.0016 -1.54703,1.8641 -1.85482,1.74012 -8.12157,-3.2709 -3.29897,-2.63793 -6.2354,-4.79622 -6.52544,-4.79622 -0.29,0 -3.46861,2.45225 -7.06359,5.44946 -3.59499,2.9972 -6.8015,5.44893 -7.12559,5.44828 -0.32413,0 -1.47209,-0.78507 -2.55108,-1.74322l-1.96181,-1.74199 1.74383,-1.57071c0.9591,-0.86394 4.78462,-4.08832 8.50115,-7.1653 3.71654,-3.07703 8.91532,-7.41057 11.55286,-9.63011 2.63754,-2.21959 5.65327,-4.69155 6.70166,-5.49332 2.28899,-1.75054 1.36489,-2.20546 10.66119,5.24853 3.6381,2.91716 6.90904,5.53756 7.26871,5.82312 2.55911,2.03199 3.48765,2.88464 3.48765,3.20258 0,0.20106 -0.51691,0.77217 -1.1487,1.26911zM665,1395c-2.484,0.8641 -14.72204,0.9221 -18.92802,0.09 -1.79833,-0.3558 -5.52576,-1.0698 -8.28318,-1.5866 -2.75743,-0.5168 -6.19059,-1.2926 -7.62925,-1.724 -1.43866,-0.4313 -3.59664,-0.8846 -4.79552,-1.0073 -1.19888,-0.1227 -3.45496,-0.4563 -5.01351,-0.7415 -1.55854,-0.2851 -3.42226,-0.5629 -4.14159,-0.6174 -2.55392,-0.1933 -12.29284,-1.6075 -18.0922,-2.6271 -3.23698,-0.569 -7.16059,-1.1578 -8.71914,-1.3082 -1.55854,-0.1504 -3.91271,-0.5371 -5.23148,-0.8593 -4.50845,-1.1014 -9.37037,-1.6364 -10.93816,-1.2035 -1.8124,0.5005 -3.16474,-0.016 -3.82207,-1.4582 -0.82339,-1.8071 -0.027,-18.9783 1.05536,-22.7582 0.82418,-2.8779 2.59634,-4.2109 4.98573,-3.7503 0.83922,0.1618 2.61409,0.348 3.9441,0.4139 1.33007,0.066 3.09569,0.2457 3.92362,0.3995 0.82797,0.1537 1.89772,0.3513 2.37727,0.4389 0.47955,0.088 0.87191,0.1954 0.87191,0.2395 0,0.044 1.47136,0.1554 3.26968,0.2474 1.79832,0.092 4.25058,0.4834 5.44946,0.87 1.19888,0.3866 3.25878,0.6886 4.57754,0.6713 1.33874,-0.018 4.13074,0.4564 6.32138,1.0733 2.15798,0.6077 6.0816,1.2828 8.71913,1.5003 6.38372,0.5264 9.02017,0.8715 9.80903,1.2837 0.35967,0.1879 1.53814,0.3566 2.61879,0.3747 1.0807,0.018 2.74823,0.2996 3.70564,0.6252 1.74653,0.594 3.4155,0.611 5.44641,0.055 3.71744,-1.0171 7.41427,-0.4716 9.45167,1.3946 1.38796,1.2713 1.91241,1.4731 3.81693,1.4682 1.21432,0 2.89449,0.067 3.73371,0.1553 1.93626,0.2043 5.49885,-0.8175 5.82639,-1.6711 0.13733,-0.3578 0.53099,-0.6505 0.87488,-0.6505 0.89083,0 3.91546,-4.7312 4.04062,-6.3205 0.0577,-0.7331 0.31289,-1.8798 0.56696,-2.5482 0.82557,-2.1714 0.28721,-8.3597 -0.9731,-11.1853 -0.98827,-2.2158 -5.28061,-5.4131 -8.68727,-6.471 -0.78677,-0.2443 -4.04363,-0.5563 -7.23749,-0.6933 -3.19386,-0.1369 -6.13657,-0.418 -6.53935,-0.6246 -0.40278,-0.2066 -1.81136,-0.4862 -3.13013,-0.6215 -1.31877,-0.1352 -3.37866,-0.5401 -4.57754,-0.8996 -2.89833,-0.8691 -8.96262,-1.9865 -12.20679,-2.2493 -5.17577,-0.4191 -6.67088,-0.6559 -8.21365,-1.3005 -0.86206,-0.3602 -2.54773,-0.6549 -3.74591,-0.6549 -1.19823,0 -3.06277,-0.3002 -4.14342,-0.6671 -1.0807,-0.3669 -3.69635,-0.8268 -5.81262,-1.0221 -2.20864,-0.2038 -4.30306,-0.6498 -4.91667,-1.0469 -1.10154,-0.713 -12.58163,-2.8844 -17.17103,-3.2479 -4.02341,-0.3187 -4.44864,-0.7774 -4.81667,-5.1958 -0.31533,-3.7856 -0.33098,-11.2412 -0.0279,-13.2337 0.0912,-0.5995 0.18218,-1.7956 0.20219,-2.6581 0.0849,-3.664 3.55161,-5.0686 8.97343,-3.6356 1.19888,0.3169 2.47406,0.5425 2.83372,0.5014 0.35967,-0.041 2.32147,0.1657 4.35957,0.4596 2.0381,0.2939 4.89226,0.597 6.3426,0.6737 1.45035,0.077 2.82361,0.2505 3.0517,0.3861 0.22809,0.1357 1.10136,0.384 1.94058,0.5517 0.83921,0.1678 2.11439,0.4718 2.83372,0.6757 3.06857,0.8696 4.86366,1.3125 5.88541,1.4522 0.59944,0.082 1.60219,0.3607 2.22831,0.6194 0.62612,0.2587 3.47074,0.5151 6.32137,0.5698 2.85064,0.055 5.67341,0.2806 6.27285,0.502 1.37968,0.5093 4.66962,1.2574 6.13679,1.3954 0.61784,0.058 1.37697,0.2624 1.68703,0.454 0.31005,0.1916 3.4339,0.3215 6.94191,0.2887 3.50801,-0.033 7.45717,0.1521 8.77594,0.411 1.31877,0.2589 3.28058,0.4645 4.35957,0.4571 8.51572,-0.059 11.77083,-2.6644 11.77083,-9.4227 0,-2.8293 -1.21335,-6.3893 -2.53108,-7.426 -0.3131,-0.2464 -0.61369,-0.7368 -0.66797,-1.0899 -0.15223,-0.9902 -1.61578,-3.2787 -2.41019,-3.7688 -3.67742,-2.2687 -6.38236,-3.3644 -9.64925,-3.9088 -0.59944,-0.1 -5.0135,-0.3524 -9.80902,-0.5611 -4.79553,-0.2087 -10.38667,-0.6853 -12.42477,-1.0591 -2.0381,-0.3737 -5.27508,-0.8792 -7.19329,-1.1232 -1.91821,-0.2441 -3.96341,-0.5422 -4.54485,-0.6625 -0.58148,-0.1203 -2.64046,-0.4356 -4.57558,-0.7005 -1.93508,-0.265 -3.76449,-0.686 -4.0653,-0.9356 -0.30081,-0.2497 -0.54691,-0.342 -0.54691,-0.2053 0,0.1368 -0.53949,0.061 -1.19888,-0.1687 -0.65938,-0.2297 -2.47405,-0.5898 -4.0326,-0.8004 -1.55855,-0.2106 -3.91271,-0.6832 -5.23148,-1.0504 -1.31877,-0.3672 -3.47676,-0.7572 -4.79553,-0.8666 -1.31877,-0.1096 -2.69203,-0.3057 -3.05169,-0.4359 -0.35967,-0.1303 -1.14439,-0.3421 -1.74383,-0.4708 -3.15393,-0.6771 -8.68932,-2.0331 -10.02701,-2.4563 -0.83921,-0.2655 -2.0163,-0.5806 -2.61574,-0.7003 -0.59944,-0.1197 -2.75743,-0.817 -4.79552,-1.5495 -2.0381,-0.7326 -4.88272,-1.5869 -6.32138,-1.8985 -1.43865,-0.3116 -3.61425,-0.9635 -4.83463,-1.4486 -1.83533,-0.7295 -2.81179,-0.8371 -5.64895,-0.6226 -3.36537,0.2546 -3.46795,0.2973 -5.43259,2.262 -1.38739,1.3873 -2.18406,2.6508 -2.59346,4.1131 -1.99063,3.2694 -1.55012,10.4262 -3.60703,15.6445 -0.32559,1.0121 0.98832,3.4406 0.94516,7.9035 -0.0214,2.1909 0.0166,5.0625 0.0837,6.3812 0.26877,5.2754 -0.20787,17.9337 -0.70555,18.739 -0.1355,0.2193 -0.35077,2.8986 -0.47838,5.9541 -0.1276,3.0555 -0.35051,5.7471 -0.49525,5.9814 -0.14478,0.2342 -0.31759,2.6979 -0.38399,5.4747 -0.10724,4.4836 -0.49943,12.2915 -0.83385,16.6016 -0.21519,2.7729 -0.69422,5.4077 -1.58527,8.7191 -0.48387,1.7984 -0.9551,3.8583 -1.04713,4.5776 -0.42523,3.3242 -0.74727,4.4366 -1.57746,5.4495 -0.78773,0.961 -1.26236,1.0988 -4.01495,1.1656 -1.71684,0.042 -4.33655,-0.1778 -5.8215,-0.4877 -1.48496,-0.3099 -2.80495,-0.4584 -2.93334,-0.3301 -0.12834,0.1284 -0.23336,0.022 -0.23336,-0.2369 0,-0.2586 -0.78582,-0.603 -1.74623,-0.7653 -0.96041,-0.1622 -2.00797,-0.6687 -2.32788,-1.1254 -0.3199,-0.4567 -0.70655,-0.7055 -0.85927,-0.5528 -0.15267,0.1526 -0.40086,-0.044 -0.55148,-0.4363 -0.15067,-0.3926 -0.42641,-0.6196 -0.61274,-0.5044 -0.39725,0.2455 -1.36603,-3.2646 -1.0446,-3.7847 0.12011,-0.1943 0,-0.3533 -0.26811,-0.3533 -0.63532,0 -0.19583,-5.9092 0.62651,-8.4243 0.32741,-1.0014 0.53287,-2.6558 0.45658,-3.6766 -0.0763,-1.0207 0.027,-1.7535 0.22914,-1.6284 0.52463,0.3242 1.20363,-1.7643 1.53295,-4.7151 0.10189,-0.9131 0.31825,-1.8752 0.48073,-2.1382 0.17726,-0.2867 0.0946,-0.3539 -0.20651,-0.1678 -0.36895,0.228 -0.38892,0.013 -0.0754,-0.8119 0.4238,-1.1146 0.56596,-3.4952 0.48217,-8.0741 -0.024,-1.3139 0.2396,-2.986 0.58588,-3.7157 0.34629,-0.7297 0.74902,-1.9108 0.89494,-2.6245 0.14595,-0.7138 0.36337,-1.7882 0.48312,-2.3876 0.11976,-0.5995 0.29471,-2.267 0.38875,-3.7056 0.0941,-1.4387 0.27892,-3.2043 0.4108,-3.9237 0.13188,-0.7193 0.33111,-3.2696 0.44271,-5.6674 0.21864,-4.6972 0.43308,-6.4444 0.87972,-7.1671 0.15625,-0.2528 0.29183,-1.4901 0.30133,-2.7496 0.01,-1.2596 0.14544,-2.4863 0.30203,-2.726 0.1566,-0.2398 0.30552,-1.1784 0.3309,-2.0858 0.027,-0.9696 0.33808,-1.8684 0.75411,-2.1798 0.49163,-0.368 0.73136,-1.301 0.78455,-3.0529 0.0423,-1.3876 0.22012,-2.6116 0.3955,-2.72 0.17543,-0.1084 0.22622,-1.3272 0.11287,-2.7086 -0.1133,-1.3813 -0.12726,-2.8072 -0.16632,-3.1654 1.35304,-11.7612 1.89461,-16.5172 1.60978,-30.6917 -0.033,-1.6016 -0.50039,-1.9453 0.23821,-3.9236 1.57881,-4.2288 1.76161,-4.6212 2.15323,-4.6212 0.21632,0 0.39332,-0.2544 0.39332,-0.5655 0,-1.2008 3.6902,-4.0942 5.66744,-4.4437 0.11989,-0.021 1.57472,-0.4853 3.23297,-1.0314 1.65825,-0.5461 3.42387,-0.8937 3.92361,-0.7724 0.49974,0.1213 2.57616,0.3454 4.61425,0.4981 4.04764,0.3032 5.9499,0.762 8.28318,1.9979 2.12638,1.1263 5.28942,2.3058 11.70649,4.3653 3.0326,0.9733 6.10235,1.9736 6.82168,2.2228 0.71933,0.2491 2.68113,0.7229 4.35956,1.0528 4.72813,0.9295 6.82373,1.4651 8.26487,2.1128 0.7294,0.3278 3.38608,0.8208 5.90373,1.0956 6.47344,0.7066 9.88162,1.3204 12.64275,2.2766 2.53892,0.8794 3.71396,1.1778 9.51231,2.4155 3.78276,0.8075 11.50421,0.9284 20.4905,0.321 2.3209,-0.1569 4.51407,-0.2913 4.87373,-0.2987 0.35967,-0.01 2.05754,-0.2718 3.77308,-0.5876 3.40844,-0.6274 11.49064,-0.8399 15.627,-0.4108 2.70808,0.2809 9.12418,2.1069 14.32297,4.0764 1.87112,0.7088 3.87687,1.9097 5.36584,3.2126 1.30774,1.1445 2.67939,2.0808 3.04804,2.0808 1.69622,0 4.97418,2.4664 6.54039,4.9211 0.57952,0.9083 1.53662,1.8715 2.12686,2.1404 0.5902,0.269 1.68249,1.4386 2.42724,2.5992 0.74474,1.1606 1.52715,2.1101 1.73872,2.1101 0.46534,0 1.65603,2.6618 2.18759,4.8904 0.21266,0.8914 0.97092,2.4608 1.68506,3.4877 1.61308,2.3192 2.56147,5.9189 2.58126,9.7976 0.008,1.6325 0.21567,4.0113 0.46072,5.2863 1.08352,5.6368 -2.33664,16.3154 -6.50387,20.3066 -2.0595,1.9726 -2.40504,2.9956 -2.04337,6.0495 1.60886,16.2362 -7.85067,22.3077 -11.48382,30.0243 -6.0747,12.9024 -9.19293,22.7855 -14.64244,36.7039z"></path></symbol><symbol id="J13" preserveAspectRatio="none" viewBox="0 0 1300 2000"><path fill="black" d="M419.93164,665.4375a4.50045,4.50045 0 0 0 -4.34375,5.44531l9.80078,49c-21.0848,92.13097 -72.64034,128.12503 -136.58594,145.7793a4.50045,4.50045 0 1 0 2.39454,8.67578c65.55276,-18.09798 120.7393,-57.34185 142.64648,-151.22851l38.16797,-19.08399a4.50045,4.50045 0 1 0 -4.02344,-8.05078l-34.73242,17.36523 -8.84375,-44.22265a4.50045,4.50045 0 0 0 -4.48047,-3.67969zM229.75391,855.48828a4.50045,4.50045 0 0 0 -0.84571,8.87695l40,10a4.50045,4.50045 0 1 0 2.1836,-8.73046l-40,-10a4.50045,4.50045 0 0 0 -1.33789,-0.14649zM611.95703,315.94727l-3.91406,8.10546c61.49639,29.71002 85.37423,74.66298 99.4082,125.50196l8.67578,-2.39453C701.74664,395.06654 675.86894,346.82425 611.95703,315.94727ZM214.73032,442.3146c-1.5396,-0.0415 -2.86053,1.08956 -3.05664,2.61719 -6.93652,24.3677 -10.71438,49.52505 -14.64438,74.64438 -0.56511,3.96093 5.37629,4.80859 5.9414,0.84766 7.50492,-23.89766 13.3029,-48.43543 14.64438,-74.64438 0.281,-1.78883 -1.07462,-3.41705 -2.88476,-3.46485zM235,530c-7.95678,14.03331 -14.12101,20.14675 -20,25m61.80699,-18.25836C268.97141,550.57273 263.21014,561.54348 250,570M600.94336,432.875C553.19961,432.97177 502.43322,483.80721 480,515c14.90872,83.97565 61.86592,112.24002 135,95 35,-40 45,-150 15,-170 -9.36831,-4.98046 -19.14756,-7.14508 -29.05664,-7.125zM615,450a15,15 0 0 1 15,15 15,15 0 0 1 -15,15 15,15 0 0 1 -15,-15 15,15 0 0 1 15,-15z"></path></symbol><symbol id="J14" preserveAspectRatio="none" viewBox="0 0 1300 2000"><path stroke="black" stroke-linecap="round" stroke-linejoin="round" stroke-width="6" fill="none" d="M730,390 940,220 1195,415 990,600ZM1150,455l10,5L950,650 730,395v-5M810,185c76.20466,-67.04362 219.3845,-149.60216 245,-150 0,0 24.5529,9.337498 25,20 3.2729,78.05148 -4.8729,269.28928 -10,265M880,265l-80,-70 10,-10c-59.08519,-62.00905 -172.10851,-85 -235,-85 -115,0 -202.35737,92.89754 -290,180 -86.45887,85.926 -93.88996,278.33494 -95,280 0,0 -34.0841,36.70236 -40,60 -13.59222,53.52804 -10.9702,116.2604 15,165 32.31459,60.64643 96.35035,104.09741 160,130 68.20426,27.75611 146.36433,20.10371 220,20 67.05968,-6.29106 121.31698,0.52461 165,-25 53.43336,-23.82897 166.10047,-48.19485 232.09726,-96.16109C992.26339,777.37834 1006.5579,702.05042 1025,645c6.6841,-20.67716 5,-65 5,-65M615,100C612.7391,85.819123 596.6621,36.865113 590,15l15,-5c16.58496,13.770117 85.21244,92.72388 140,130M385,185c-39.92964,-15.39327 -78.83157,-36.53072 -120,-45 0,0 -24.37216,5.33939 -30,15 -9.83366,16.88022 34.25738,101.05705 35,100l5,35M468.5,936c-40,20 -206.85433,168.9315 -228.5,344 -4.49925,36.3896 -12.89664,75.6762 0,110 6.23151,16.5848 19.07573,32.2343 35,40 27.0061,13.17 62.9941,18.1704 90,5 41.97124,-20.4688 73.33764,-68.7813 80,-115 12.77095,-88.5957 20.4634,-186.3171 55,-275 14.3764,-36.9156 45,-110 45,-110M242.82843,1400c-20,20 -42.82843,90 -34.36396,121.065 14.34657,52.6525 40.34328,87.8881 96.53553,98.935 61.65867,12.1215 120.77655,26.6317 175,60 130,80 130,100 395,120l20,-20c-73.11139,-9.0617 -89.4461,-53.9836 -105,-100 -12.99448,-38.4444 2.02132,-82.6913 10,-115 -55,-20 -126.14132,-81.5331 -132.5,-148.5 -8.83521,-93.0486 118.37188,-151.2008 142.5,-241.5 20.22597,-75.6954 -26.90599,-159.7736 -5,-235 1.68011,-5.7696 8.25861,-9.24859 10,-15 4.82974,-15.95153 0,-50 0,-50M817.5,921c0,0 177.69139,150.4368 207.5,254 29.2763,101.7137 17.5507,240.1193 -47,324 -40.57982,52.7316 -143,76 -178,66M1006,704.5c6.8425,-5.59201 72.0194,5.15414 96,37.5 43,58 23,243 -17,308 -6.1145,9.936 -25.2928,6.4715 -35,0 -15,-10 -21.1672,-39.0607 -40,-40 -23.65838,-1.18 -55,50 -55,50M1015,1145c0,0 112.4873,168.4549 135,265 29.1459,124.991 8.4758,257.3653 -5,385 -1.7846,16.9028 -4.6163,33.8784 -10,50 -23.5117,70.406 -121.8063,145.6743 -143.43503,132.0711 0.58482,13.4974 -63.13605,25.652 -91.56497,2.9289 -35.24891,-9.4681 -70,-36.7875 -70,-90 0,-60 40.45451,-85.138 45,-90M430,1370c12.33651,101.5253 8.0968,233.4075 41.41421,302.8284M307.87868,1621.4645c0,10 -7.16265,15.6293 -12.11427,18.2739C255.07588,1661.469 215,1750 270,1800c13.90526,39.0733 92.33531,51.6217 90,40 129.59451,22.2297 165,-105 167.87868,-129.5459"></path></symbol><symbol id="J15" preserveAspectRatio="none" viewBox="0 0 1300 2000"><path stroke="black" stroke-linecap="round" stroke-linejoin="round" stroke-width="3" fill="none" d="M605,10l30,95M270,255c0,0 -5,-30 0,-35 5,-5 60,15 60,15M800,195C759.10033,180.94906 699.09351,209.66823 660,235 619.2527,261.40339 435,510 420,535 397.83299,571.94502 280,690 189.77507,693.83891 164.30302,694.9227 145,670 145,670M190,695c-9.53631,93.09894 38.13051,140.28258 120,210M840,230c40,-80 162.0491,-133.332868 180,-120 18.6891,13.88118 3.2432,190.10179 7.5369,177.38916M495,1055c0,0 -41.92164,59.704 -53,111.5 -8.71474,40.7451 -1.94843,150.8443 -17.5,189.5 -21.55786,53.5852 -74.5,79 -109.5,84M629.29289,438.58579C579.26509,411.68741 505,475 465.7071,531.06066c-21.58175,30.7915 -2.54834,88.19187 27.82843,110.35355 31.08469,22.67815 84.75011,17.88123 109.6967,-11.41421 42.87868,-50.35355 62.25191,-171.95532 26.06066,-191.41421zM948.5,1526c5.31235,80.222 34.547,161.8546 66.5,239M1125,1525c-15,70 -35,215 -110,240 -43.79222,14.5974 -92.51871,-7.1555 -140,-15M915,840c52.18287,-0.85487 40,110 25,140M1020,890c83.2174,3.00086 30.3504,99.55142 30,160M991.51472,1815.0503C990.41352,1872.5071 967.41173,1939.5407 990,1980M947.07107,1803.5355C870,1890 903.07632,1933.6829 940,1990M990.80761,1815.0503C880,1760 830,1900 900,1980M1050,1740c27.1838,-3.4825 53.8181,0.2773 80,10M270,1800c-1.17291,-63.9448 20.32746,-112.8981 90,-130 102.47333,65.0661 37.5054,116.4075 0,170M360,1670c-47.76021,46.5539 -49.40189,103.7327 -55,160"></path></symbol><rect width="239" height="335" x="-119.5" y="-167.5" rx="12" ry="12" fill="white" stroke="black"></rect><use width="202.8" height="312" x="-101.4" y="-156" xlink:href="#J11"></use><use width="202.8" height="312" x="-101.4" y="-156" xlink:href="#J12"></use><use width="202.8" height="312" x="-101.4" y="-156" xlink:href="#J13"></use><use width="202.8" height="312" x="-101.4" y="-156" xlink:href="#J14"></use><use width="202.8" height="312" x="-101.4" y="-156" xlink:href="#J15"></use></svg>