<?xml version="1.0" encoding="UTF-8" standalone="no"?>
<svg xmlns="http://www.w3.org/2000/svg" xmlns:xlink="http://www.w3.org/1999/xlink" class="card" face="2J" height="3.5in" preserveAspectRatio="none" viewBox="-120 -168 240 336" width="2.5in"><symbol id="J21" preserveAspectRatio="none" viewBox="0 0 1300 2000"><path fill="black" d="M479.64645,513.05546 467.5,530.5c24.18291,102.76967 81.17212,103.40057 136.26256,99.14645l13.35876,-20.35356C542.91773,627.98426 492.76179,592.82717 479.64645,513.05546Z"></path></symbol><symbol id="J22" preserveAspectRatio="none" viewBox="0 0 1300 2000"><path fill="black" d="M419.93164,665.4375a4.50045,4.50045 0 0 0 -4.34375,5.44531l9.80078,49c-21.0848,92.13097 -72.64034,128.12503 -136.58594,145.7793a4.50045,4.50045 0 1 0 2.39454,8.67578c65.55276,-18.09798 120.7393,-57.34185 142.64648,-151.22851l38.16797,-19.08399a4.50045,4.50045 0 1 0 -4.02344,-8.05078l-34.73242,17.36523 -8.84375,-44.22265a4.50045,4.50045 0 0 0 -4.48047,-3.67969zM229.75391,855.48828a4.50045,4.50045 0 0 0 -0.84571,8.87695l40,10a4.50045,4.50045 0 1 0 2.1836,-8.73046l-40,-10a4.50045,4.50045 0 0 0 -1.33789,-0.14649zM611.95703,315.94727l-3.91406,8.10546c61.49639,29.71002 85.37423,74.66298 99.4082,125.50196l8.67578,-2.39453C701.74664,395.06654 675.86894,346.82425 611.95703,315.94727ZM214.73032,442.3146c-1.5396,-0.0415 -2.86053,1.08956 -3.05664,2.61719 -6.93652,24.3677 -10.71438,49.52505 -14.64438,74.64438 -0.56511,3.96093 5.37629,4.80859 5.9414,0.84766 7.50492,-23.89766 13.3029,-48.43543 14.64438,-74.64438 0.281,-1.78883 -1.07462,-3.41705 -2.88476,-3.46485zM235,530c-7.95678,14.03331 -14.12101,20.14675 -20,25m61.80699,-18.25836C268.97141,550.57273 263.21014,561.54348 250,570M600.94336,432.875C553.19961,432.97177 502.43322,483.80721 480,515c14.90872,83.97565 61.86592,112.24002 135,95 35,-40 45,-150 15,-170 -9.36831,-4.98046 -19.14756,-7.14508 -29.05664,-7.125zM615,450a15,15 0 0 1 15,15 15,15 0 0 1 -15,15 15,15 0 0 1 -15,-15 15,15 0 0 1 15,-15z"></path></symbol><symbol id="J23" preserveAspectRatio="none" viewBox="0 0 1300 2000"><path stroke="black" stroke-linecap="round" stroke-linejoin="round" stroke-width="6" fill="none" d="M730,390 940,220 1195,415 990,600ZM1150,455l10,5L950,650 730,395v-5M810,185c76.20466,-67.04362 219.3845,-149.60216 245,-150 0,0 24.5529,9.337498 25,20 3.2729,78.05148 -4.8729,269.28928 -10,265M880,265l-80,-70 10,-10c-59.08519,-62.00905 -172.10851,-85 -235,-85 -115,0 -202.35737,92.89754 -290,180 -86.45887,85.926 -93.88996,278.33494 -95,280 0,0 -34.0841,36.70236 -40,60 -13.59222,53.52804 -10.9702,116.2604 15,165 32.31459,60.64643 96.35035,104.09741 160,130 68.20426,27.75611 146.36433,20.10371 220,20 67.05968,-6.29106 121.31698,0.52461 165,-25 53.43336,-23.82897 166.10047,-48.19485 232.09726,-96.16109C992.26339,777.37834 1006.5579,702.05042 1025,645c6.6841,-20.67716 5,-65 5,-65M615,100C612.7391,85.819123 596.6621,36.865113 590,15l15,-5c16.58496,13.770117 85.21244,92.72388 140,130M385,185c-39.92964,-15.39327 -78.83157,-36.53072 -120,-45 0,0 -24.37216,5.33939 -30,15 -9.83366,16.88022 34.25738,101.05705 35,100l5,35M468.5,936c-40,20 -206.85433,168.9315 -228.5,344 -4.49925,36.3896 -12.89664,75.6762 0,110 6.23151,16.5848 19.07573,32.2343 35,40 27.0061,13.17 62.9941,18.1704 90,5 41.97124,-20.4688 73.33764,-68.7813 80,-115 12.77095,-88.5957 20.4634,-186.3171 55,-275 14.3764,-36.9156 45,-110 45,-110M242.82843,1400c-20,20 -42.82843,90 -34.36396,121.065 14.34657,52.6525 40.34328,87.8881 96.53553,98.935 61.65867,12.1215 120.77655,26.6317 175,60 130,80 130,100 395,120l20,-20c-73.11139,-9.0617 -89.4461,-53.9836 -105,-100 -12.99448,-38.4444 2.02132,-82.6913 10,-115 -55,-20 -126.14132,-81.5331 -132.5,-148.5 -8.83521,-93.0486 118.37188,-151.2008 142.5,-241.5 20.22597,-75.6954 -26.90599,-159.7736 -5,-235 1.68011,-5.7696 8.25861,-9.24859 10,-15 4.82974,-15.95153 0,-50 0,-50M817.5,921c0,0 177.69139,150.4368 207.5,254 29.2763,101.7137 17.5507,240.1193 -47,324 -40.57982,52.7316 -143,76 -178,66M1006,704.5c6.8425,-5.59201 72.0194,5.15414 96,37.5 43,58 23,243 -17,308 -6.1145,9.936 -25.2928,6.4715 -35,0 -15,-10 -21.1672,-39.0607 -40,-40 -23.65838,-1.18 -55,50 -55,50M1015,1145c0,0 112.4873,168.4549 135,265 29.1459,124.991 8.4758,257.3653 -5,385 -1.7846,16.9028 -4.6163,33.8784 -10,50 -23.5117,70.406 -121.8063,145.6743 -143.43503,132.0711 0.58482,13.4974 -63.13605,25.652 -91.56497,2.9289 -35.24891,-9.4681 -70,-36.7875 -70,-90 0,-60 40.45451,-85.138 45,-90M430,1370c12.33651,101.5253 8.0968,233.4075 41.41421,302.8284M307.87868,1621.4645c0,10 -7.16265,15.6293 -12.11427,18.2739C255.07588,1661.469 215,1750 270,1800c13.90526,39.0733 92.33531,51.6217 90,40 129.59451,22.2297 165,-105 167.87868,-129.5459"></path></symbol><symbol id="J24" preserveAspectRatio="none" viewBox="0 0 1300 2000"><path stroke="black" stroke-linecap="round" stroke-linejoin="round" stroke-width="3" fill="none" d="M605,10l30,95M270,255c0,0 -5,-30 0,-35 5,-5 60,15 60,15M800,195C759.10033,180.94906 699.09351,209.66823 660,235 619.2527,261.40339 435,510 420,535 397.83299,571.94502 280,690 189.77507,693.83891 164.30302,694.9227 145,670 145,670M190,695c-9.53631,93.09894 38.13051,140.28258 120,210M840,230c40,-80 162.0491,-133.332868 180,-120 18.6891,13.88118 3.2432,190.10179 7.5369,177.38916M495,1055c0,0 -41.92164,59.704 -53,111.5 -8.71474,40.7451 -1.94843,150.8443 -17.5,189.5 -21.55786,53.5852 -74.5,79 -109.5,84M629.29289,438.58579C579.26509,411.68741 505,475 465.7071,531.06066c-21.58175,30.7915 -2.54834,88.19187 27.82843,110.35355 31.08469,22.67815 84.75011,17.88123 109.6967,-11.41421 42.87868,-50.35355 62.25191,-171.95532 26.06066,-191.41421zM948.5,1526c5.31235,80.222 34.547,161.8546 66.5,239M1125,1525c-15,70 -35,215 -110,240 -43.79222,14.5974 -92.51871,-7.1555 -140,-15M915,840c52.18287,-0.85487 40,110 25,140M1020,890c83.2174,3.00086 30.3504,99.55142 30,160M991.51472,1815.0503C990.41352,1872.5071 967.41173,1939.5407 990,1980M947.07107,1803.5355C870,1890 903.07632,1933.6829 940,1990M990.80761,1815.0503C880,1760 830,1900 900,1980M1050,1740c27.1838,-3.4825 53.8181,0.2773 80,10M270,1800c-1.17291,-63.9448 20.32746,-112.8981 90,-130 102.47333,65.0661 37.5054,116.4075 0,170M360,1670c-47.76021,46.5539 -49.40189,103.7327 -55,160"></path></symbol><rect width="239" height="335" x="-119.5" y="-167.5" rx="12" ry="12" fill="white" stroke="black"></rect><use width="202.8" height="312" x="-101.4" y="-156" xlink:href="#J21"></use><use width="202.8" height="312" x="-101.4" y="-156" xlink:href="#J22"></use><use width="202.8" height="312" x="-101.4" y="-156" xlink:href="#J23"></use><use width="202.8" height="312" x="-101.4" y="-156" xlink:href="#J24"></use></svg>